PathFileType	3	(X/Y/Z)	D:\Vicon Setup\UG\Test1\New Session\NewSession10.trc
DataRate	CameraRate	NumFrames	NumMarkers	Units	OrigDataRate	OrigDataStartFrame	OrigNumFrames
100.0	100.0	8	27	mm	100.0	438	353	
Frame#	Time	Sternum			LShoulder			RShoulder			LASIS			RASIS			RPSIS			LPSIS			RKneeLateral			RKneeMedial			RFibulaHead			RMidShank			RAnkleLateral			RAnkleMedial			RHeel			RMT5			RMT2			RToe			LKneeLateral			LKneeMedial			LFibulaHead			LMidShank			LAnkleLateral			LAnkleMedial			LHeel			LMT5			LMT2			LToe			
		X1	Y1	Z1	X2	Y2	Z2	X3	Y3	Z3	X4	Y4	Z4	X5	Y5	Z5	X6	Y6	Z6	X7	Y7	Z7	X8	Y8	Z8	X9	Y9	Z9	X10	Y10	Z10	X11	Y11	Z11	X12	Y12	Z12	X13	Y13	Z13	X14	Y14	Z14	X15	Y15	Z15	X16	Y16	Z16	X17	Y17	Z17	X18	Y18	Z18	X19	Y19	Z19	X20	Y20	Z20	X21	Y21	Z21	X22	Y22	Z22	X23	Y23	Z23	X24	Y24	Z24	X25	Y25	Z25	X26	Y26	Z26	X27	Y27	Z27	
438	4.37	-214.72136	1344.3092	-3357.8064	-28.669573	1411.5723	-3455.9062	-399.36792	1390.027	-3435.5134	-99.118019	978.11945	-3404.0359	-356.77884	975.01404	-3425.8657	-270.45413	991.99121	-3594.6904	-139.75453	993.1087	-3590.0007	-397.67761	507.31491	-3508.9036	-277.05051	467.89462	-3458.5496	-402.51047	447.26483	-3549.7161	-311.96143	314.16766	-3639.4031	-342.42603	235.88428	-3835.5874	-278.42651	201.3676	-3773.9722	-271.47192	290.88126	-3855.3787	-369.94147	75.056122	-3873.176	-319.15729	80.965172	-3816.8123	-311.97717	27.749897	-3812.0083	-76.768402	510.35352	-3329.6331	-206.67099	502.70575	-3317.0959	-74.076607	446.26328	-3333.8242	-165.6454	298.7019	-3301.7622	-116.30478	91.874603	-3348.771	-201.1006	115.10738	-3316.4102	-170.80534	60.550598	-3422.4609	-88.270866	40.888054	-3209.1074	-152.24086	63.122829	-3198.105	-158.65404	45.053383	-3136.679
439	4.38	-214.75314	1346.0968	-3348.2817	-28.26012	1413.2321	-3445.6531	-399.07245	1391.5714	-3426.9382	-98.713112	979.49585	-3394.3843	-356.42783	976.98022	-3416.9377	-269.3645	993.47803	-3585.4761	-138.70512	994.74811	-3580.3867	-398.12384	508.81158	-3491.8064	-277.38568	470.18604	-3442.7583	-403.03442	448.7977	-3532.3237	-312.39865	316.77927	-3622.5151	-341.93692	239.84134	-3819.2808	-278.2843	205.07886	-3757.1443	-270.02142	292.70358	-3840.8035	-373.39404	79.001358	-3852.7039	-321.69971	84.734337	-3797.2341	-315.48166	31.460449	-3791.4089	-77.361504	510.44864	-3325.0896	-207.15366	502.58679	-3313.1211	-74.720039	446.32404	-3329.8938	-166.16016	298.51181	-3298.7983	-116.81882	92.278145	-3348.1965	-201.98409	115.03407	-3315.7686	-171.08672	60.837925	-3422.2744	-88.555649	40.923351	-3208.9185	-152.63347	62.484962	-3197.769	-158.83189	43.868179	-3136.3538
440	4.39	-214.83	1348.5568	-3335.446	-27.70656	1415.5288	-3431.8306	-398.69785	1393.6658	-3415.4224	-98.228584	981.35956	-3381.4136	-355.95941	979.70172	-3404.9434	-267.95944	995.65021	-3573.061	-137.34764	997.04968	-3567.459	-398.68372	511.06137	-3468.8567	-277.81332	473.44202	-3421.1663	-403.52628	451.14032	-3508.9802	-312.77496	320.12881	-3599.3547	-341.49954	244.27446	-3796.6035	-278.09042	209.61024	-3733.8196	-268.54004	294.3392	-3820.7695	-377.83865	83.448631	-3823.7532	-324.88693	89.283432	-3769.6667	-319.84088	35.938168	-3762.3806	-78.212486	510.63245	-3318.7883	-207.94127	502.7182	-3308.2124	-75.569046	446.48737	-3324.4709	-166.95706	298.31305	-3295.2314	-117.43733	92.756714	-3347.4617	-203.00452	114.96793	-3314.9934	-171.43587	61.218143	-3422.033	-88.889282	40.964481	-3208.7056	-153.08051	61.777603	-3197.3628	-159.0463	42.546806	-3135.9753
441	4.4	-214.96805	1351.4165	-3320.7131	-27.07473	1418.2426	-3415.9312	-398.29813	1396.0864	-3402.2268	-97.752907	983.5	-3366.543	-355.39755	982.96295	-3391.1597	-266.43161	998.3584	-3558.7932	-135.8714	999.80945	-3552.623	-399.24136	513.96869	-3442.6204	-278.2637	477.35428	-3395.8596	-403.87036	454.18747	-3482.1782	-313.07544	323.6817	-3572.1545	-341.29605	248.07628	-3769.5945	-277.98651	214.01289	-3706.0947	-267.43225	295.0769	-3796.979	-382.58395	87.380943	-3789.0249	-328.27795	93.720284	-3736.5789	-324.39737	40.386097	-3727.4629	-79.232048	510.89304	-3311.3938	-208.95099	503.06696	-3303.2046	-76.499496	446.74646	-3318.1355	-167.9726	298.14465	-3291.6987	-118.03406	93.240265	-3346.6736	-203.97092	114.95071	-3314.2119	-171.80128	61.647812	-3421.771	-89.199341	40.997784	-3208.5107	-153.48015	61.161121	-3196.9426	-159.25247	41.366821	-3135.6257
442	4.41	-215.17639	1354.3953	-3305.3542	-26.453773	1421.1494	-3399.2913	-397.91891	1398.6238	-3388.4583	-97.349861	985.7121	-3351.0276	-354.77487	986.52301	-3376.7329	-264.94135	1001.4067	-3543.8772	-134.43488	1002.8089	-3537.1172	-399.67883	517.37628	-3415.3635	-278.66962	481.58511	-3368.7522	-404.06213	457.74557	-3454.0688	-313.43195	326.94763	-3543.0005	-341.39908	250.39426	-3740.2529	-278.1745	217.43872	-3675.9546	-266.8688	294.42429	-3770.9216	-386.99982	90.02877	-3751.4895	-331.57748	97.303703	-3700.5718	-328.6871	44.158745	-3689.3557	-80.278969	511.17276	-3303.6685	-210.00999	503.41785	-3298.6868	-77.389236	447.05417	-3311.5415	-169.06848	298.01385	-3288.6208	-118.52621	93.693497	-3345.9128	-204.76105	115.01074	-3313.4985	-172.15276	62.089928	-3421.5127	-89.432907	41.01112	-3208.3562	-153.76724	60.725079	-3196.5396	-159.41348	40.472992	-3135.3523
443	4.42	-215.45796	1357.3074	-3290.0969	-25.923738	1424.0868	-3382.6694	-397.58426	1401.1462	-3374.7405	-97.042244	987.85791	-3335.5752	-354.1301	990.16901	-3362.3447	-263.57291	1004.619	-3528.9929	-133.11887	1005.8849	-3521.6367	-399.93359	521.10944	-3388.3413	-278.98627	485.9238	-3341.0281	-404.16119	461.58377	-3425.8552	-313.99341	329.63437	-3513.177	-341.74802	250.83577	-3709.8628	-278.77725	219.42703	-3644.6018	-266.75717	292.17581	-3743.4702	-390.73685	91.029076	-3713.2012	-334.68018	99.640137	-3663.3892	-332.55954	46.884556	-3649.9236	-81.204285	511.40784	-3296.2463	-210.96048	503.57245	-3294.7473	-78.157722	447.36484	-3305.2444	-170.07333	297.90582	-3286.0793	-118.90845	94.11837	-3345.2075	-205.33247	115.14262	-3312.8533	-172.49597	62.52726	-3421.2576	-89.577286	41.000469	-3208.24	-153.93692	60.46117	-3196.1646	-159.5139	39.852699	-3135.1526
444	4.43	-215.81363	1360.0712	-3275.1892	-25.516945	1426.963	-3366.3132	-397.29364	1403.5901	-3361.3064	-96.818039	989.86542	-3320.4441	-353.47852	993.74567	-3348.2532	-262.35077	1007.858	-3514.3726	-131.94374	1008.935	-3506.4246	-400.02869	524.99786	-3361.9746	-279.19458	490.31873	-3313.3047	-404.22278	465.45477	-3398.0073	-314.79449	331.64404	-3483.2505	-342.22177	249.3878	-3679.0103	-279.74988	219.90341	-3612.5586	-266.89072	288.3179	-3715.0408	-393.74158	90.364372	-3675.0317	-337.55859	100.64429	-3625.8057	-336.04727	48.447124	-3610.0381	-81.91375	511.58948	-3289.5354	-211.73318	503.51382	-3291.0801	-78.772682	447.66971	-3299.625	-170.8448	297.80743	-3283.9297	-119.22291	94.5383	-3344.5464	-205.70392	115.32355	-3312.2368	-172.86125	62.965519	-3420.9812	-89.652756	40.969582	-3208.1479	-154.02509	60.303925	-3195.8157	-159.55853	39.410263	-3134.9976
445	4.44	-216.24425	1362.6688	-3260.6106	-25.21241	1429.7352	-3350.1809	-397.03082	1405.9264	-3348.1758	-96.640572	991.70532	-3305.6545	-352.79868	997.15991	-3334.4482	-261.27563	1011.0239	-3500.0027	-130.90627	1011.8965	-3491.4885	-400.05185	528.8941	-3336.2698	-279.30231	494.81573	-3285.9492	-404.28754	469.12952	-3370.6526	-315.72842	333.00146	-3453.3618	-342.715	246.24184	-3647.8113	-280.90689	219.02563	-3579.9858	-267.10574	282.91415	-3685.8225	-396.15057	88.238914	-3636.9153	-340.173	100.43573	-3587.9075	-339.19446	48.961479	-3569.7913	-82.39592	511.77139	-3283.6963	-212.33661	503.38696	-3287.26	-79.24511	447.99747	-3294.8474	-171.32387	297.72781	-3281.9468	-119.51783	94.983131	-3343.9041	-205.94237	115.53983	-3311.6016	-173.27126	63.434616	-3420.657	-89.693237	40.925774	-3208.0632	-154.07744	60.181789	-3195.4849	-159.56291	39.041531	-3134.8569
